<svg xmlns="http://www.w3.org/2000/svg" viewBox="0 0 77 73"><path fill="#84CAF7" stroke="#7C5895" stroke-width="2" stroke-linecap="round" stroke-linejoin="round" stroke-miterlimit="10" d="M6 12h43v34H6z"/><path fill="#FFFFB3" d="M6 24h43v11H6z"/><path fill="#FFFFB3" stroke="#7C5895" stroke-width="2" stroke-linecap="round" stroke-linejoin="round" stroke-miterlimit="10" d="M49 12H6c-1.1 0-2-.9-2-2s.9-2 2-2h43c1.1 0 2 .9 2 2s-.9 2-2 2z"/><path fill="#C4CFE8" stroke="#7C5895" stroke-width="2" stroke-linecap="round" stroke-linejoin="round" stroke-miterlimit="10" d="M71.5 58h-65C5.1 58 4 56.9 4 55.5v-7.1C4 47.1 5.1 46 6.5 46h65.1c1.4 0 2.5 1.1 2.5 2.5v7.1c-.1 1.3-1.2 2.4-2.6 2.4z"/><circle fill="#C4CFE8" stroke="#7C5895" stroke-width="2" stroke-linecap="round" stroke-linejoin="round" stroke-miterlimit="10" cx="20" cy="58" r="7"/><circle fill="#7C5895" cx="20" cy="58" r="1.8"/><circle fill="#C4CFE8" stroke="#7C5895" stroke-width="2" stroke-linecap="round" stroke-linejoin="round" stroke-miterlimit="10" cx="61" cy="58" r="7"/><circle fill="#7C5895" cx="61" cy="58" r="1.8"/><path fill="none" stroke="#7C5895" stroke-width="2" stroke-linecap="round" stroke-linejoin="round" stroke-miterlimit="10" d="M6 12h43v34H6z"/><path fill="#E79" stroke="#7C5895" stroke-width="2" stroke-linecap="round" stroke-linejoin="round" stroke-miterlimit="10" d="M49 24h12l11 16v6H49z"/><path fill="none" stroke="#7C5895" stroke-width="2" stroke-linecap="round" stroke-linejoin="round" stroke-miterlimit="10" d="M56 20v4"/><path fill="#BBDFF9" stroke="#7C5895" stroke-width="2" stroke-linecap="round" stroke-linejoin="round" stroke-miterlimit="10" d="M53 38V28h6l7 10z"/><path fill="none" stroke="#7C5895" stroke-width="2" stroke-linecap="round" stroke-linejoin="round" stroke-miterlimit="10" d="M53 42h3M6 35h43M6 23.6h30m5.3.1h2.5M11 28v3m5.7-3v3m5.6-3v3m5.7-3v3m5.7-3v3m5.6-3v3m5.7-3v3"/></svg>